<svg width="22" height="24" viewBox="0 0 22 24" fill="none" xmlns="http://www.w3.org/2000/svg">
<path id="Vector" d="M9.09932 24C7.30003 24.0005 5.54099 23.471 4.04469 22.4784C2.54839 21.4859 1.38204 20.0749 0.693144 18.4239C0.00425249 16.7729 -0.176231 14.956 0.174518 13.2031C0.525268 11.4502 1.3915 9.84004 2.66365 8.57617L9.48467 1.79806C10.7275 0.624128 12.383 -0.020926 14.0979 0.000518033C15.8128 0.0219621 17.4514 0.708206 18.6641 1.91284C19.8767 3.11747 20.5674 4.74511 20.5888 6.44849C20.6102 8.15187 19.9606 9.79612 18.7786 11.0304L11.9596 17.8045C11.1966 18.5365 10.1746 18.9416 9.11388 18.9324C8.05311 18.9233 7.03841 18.5006 6.2883 17.7556C5.5382 17.0105 5.11272 16.0027 5.1035 14.949C5.09428 13.8954 5.50207 12.8803 6.23902 12.1225L12.702 5.70399L14.8462 7.83477L8.38424 14.2552C8.28764 14.3479 8.21059 14.4588 8.15758 14.5813C8.10458 14.7039 8.07668 14.8357 8.07551 14.9691C8.07434 15.1025 8.09993 15.2348 8.15079 15.3583C8.20164 15.4817 8.27674 15.5939 8.37171 15.6882C8.46667 15.7825 8.5796 15.8571 8.7039 15.9076C8.8282 15.9582 8.96138 15.9836 9.09568 15.9824C9.22998 15.9813 9.3627 15.9535 9.48609 15.9009C9.60949 15.8482 9.7211 15.7717 9.81439 15.6758L16.6395 8.90367C16.9776 8.57932 17.2473 8.19133 17.4328 7.76235C17.6183 7.33337 17.716 6.87198 17.72 6.40511C17.7241 5.93824 17.6346 5.47523 17.4566 5.04311C17.2786 4.61099 17.0157 4.21841 16.6833 3.88827C16.351 3.55813 15.9557 3.29704 15.5207 3.12025C15.0856 2.94345 14.6195 2.85449 14.1494 2.85855C13.6794 2.8626 13.2149 2.9596 12.783 3.14388C12.3511 3.32816 11.9605 3.59602 11.6339 3.93185L4.80584 10.7059C3.70041 11.8428 3.08873 13.3654 3.10256 14.9458C3.11639 16.5263 3.75461 18.0381 4.87976 19.1556C6.00491 20.2732 7.52698 20.9072 9.11813 20.9209C10.7093 20.9346 12.2422 20.3271 13.3867 19.2291L19.8487 12.8096L22 14.9404L15.537 21.3599C14.6918 22.1993 13.6881 22.8647 12.5833 23.3177C11.4785 23.7708 10.2945 24.0027 9.09932 24Z" fill="#5F7381"/>
</svg>
