<svg width="26" height="26" viewBox="0 0 26 26" fill="none" xmlns="http://www.w3.org/2000/svg">
<path id="Vector" d="M13 0C9.55333 0.00373993 6.24889 1.37902 3.81173 3.8241C1.37456 6.26917 0.00372784 9.58433 0 13.0422C0.65 30.3231 25.35 30.3155 26 13.0422C25.9963 9.58433 24.6254 6.26917 22.1883 3.8241C19.7511 1.37902 16.4467 0.00373993 13 0ZM16.7917 8.69479C17.2226 8.69479 17.636 8.86655 17.9407 9.17229C18.2455 9.47802 18.4167 9.89269 18.4167 10.3251C18.4167 10.7574 18.2455 11.1721 17.9407 11.4778C17.636 11.7836 17.2226 11.9553 16.7917 11.9553C16.3607 11.9553 15.9474 11.7836 15.6426 11.4778C15.3379 11.1721 15.1667 10.7574 15.1667 10.3251C15.1667 9.89269 15.3379 9.47802 15.6426 9.17229C15.9474 8.86655 16.3607 8.69479 16.7917 8.69479ZM9.20833 8.69479C9.63931 8.69479 10.0526 8.86655 10.3574 9.17229C10.6621 9.47802 10.8333 9.89269 10.8333 10.3251C10.8333 10.7574 10.6621 11.1721 10.3574 11.4778C10.0526 11.7836 9.63931 11.9553 9.20833 11.9553C8.77736 11.9553 8.36403 11.7836 8.05929 11.4778C7.75454 11.1721 7.58333 10.7574 7.58333 10.3251C7.58333 9.89269 7.75454 9.47802 8.05929 9.17229C8.36403 8.86655 8.77736 8.69479 9.20833 8.69479ZM19.3288 16.8918C18.6923 18.0176 17.7733 18.9568 16.6631 19.6161C15.5528 20.2754 14.29 20.6319 13 20.6501C11.7091 20.632 10.4453 20.2757 9.33401 19.6164C8.22271 18.9572 7.30251 18.0179 6.66467 16.8918C6.54949 16.7114 6.49001 16.501 6.49368 16.2868C6.49736 16.0726 6.56404 15.8643 6.68535 15.688C6.80665 15.5118 6.97717 15.3754 7.17548 15.296C7.3738 15.2166 7.59107 15.1978 7.8 15.242C9.46582 15.8716 11.2214 16.2297 13 16.3027C14.7757 16.2288 16.5283 15.8707 18.1913 15.242C18.4004 15.1973 18.618 15.2157 18.8167 15.2948C19.0154 15.374 19.1863 15.5103 19.3079 15.6867C19.4296 15.8631 19.4964 16.0716 19.5002 16.2861C19.5039 16.5005 19.4443 16.7113 19.3288 16.8918Z" fill="#5F7381"/>
</svg>
