<svg width="1385" height="251" viewBox="0 0 1385 251" fill="none" xmlns="http://www.w3.org/2000/svg">
<g clip-path="url(#clip0_73_5)">
<path d="M382.383 67.1663C409.879 67.1663 429.491 72.3464 441.278 82.6876C453.045 93.0476 458.92 110.202 458.92 134.187V250.268H410.554V140.137C410.554 126.455 408.434 117.559 404.192 113.486C399.95 109.413 391.43 107.386 378.649 107.386H339.78V250.268H291.414V67.1663H382.383Z" fill="white"/>
<path d="M482.174 67.1663H516.275V0.821098H564.641V67.1663H615.727V103.652H564.641V177.635C564.641 191.205 566.949 200.626 571.604 205.882C576.239 211.137 584.328 213.764 595.871 213.764H615.727V250.249H571.604C553.718 250.249 540.036 245.295 530.539 235.404C521.042 225.513 516.275 211.343 516.275 192.894V103.633H482.174V67.1476V67.1663Z" fill="white"/>
<path d="M648.253 67.1663H747.348C772.347 67.1663 791.191 72.9094 803.859 84.3955C816.528 95.8815 822.871 112.942 822.871 135.557V250.268H692.883C674.659 250.268 660.658 245.689 650.88 236.53C641.102 227.371 636.203 214.365 636.203 197.492C636.203 176.678 641.834 161.739 653.095 152.693C664.356 143.646 683.049 139.123 709.174 139.123H772.817V134.544C772.817 123.677 769.626 116.039 763.226 111.628C756.826 107.218 745.434 105.003 729.031 105.003H648.253V67.1663ZM712.571 213.445H773.154V175.609H716.137C704.82 175.609 697.012 177.129 692.714 180.188C688.416 183.247 686.258 188.559 686.258 196.141C686.258 202.597 687.985 207.083 691.438 209.635C694.891 212.188 701.929 213.445 712.571 213.445Z" fill="white"/>
<path d="M865.531 67.1663H946.816C965.828 67.1663 979.153 70.5822 986.773 77.4326C994.412 84.2829 998.222 96.2382 998.222 113.317V143.872H952.071V120.28C952.071 113.148 950.795 108.381 948.242 105.941C945.69 103.501 939.89 102.3 930.844 102.3H913.878V250.287H865.512V67.1851L865.531 67.1663Z" fill="white"/>
<path d="M1111.15 250.268C1080.84 250.268 1057.89 242.554 1042.35 227.108C1026.79 211.662 1019.02 188.896 1019.02 158.811C1019.02 128.726 1026.82 105.923 1042.44 90.4201C1058.05 74.9176 1080.97 67.1663 1111.17 67.1663H1181.77V105.341H1117.79C1100.26 105.341 1088.46 107.837 1082.42 112.81C1076.37 117.784 1073.11 126.793 1072.66 139.799H1181.77V177.973H1072.66C1073.11 191.092 1076.13 200.063 1081.74 204.868C1087.33 209.673 1099.25 212.075 1117.46 212.075H1181.77V250.249H1111.17L1111.15 250.268Z" fill="white"/>
<path d="M1209.87 212.094H1311.86C1320.9 212.094 1327.49 210.686 1331.62 207.852C1335.75 205.018 1337.81 200.495 1337.81 194.283C1337.81 188.071 1335.71 183.51 1331.54 180.62C1327.36 177.729 1320.79 176.284 1311.86 176.284H1270.12C1245.34 176.284 1228.6 172.493 1219.89 164.911C1211.18 157.328 1206.83 143.872 1206.83 124.522C1206.83 105.172 1212.08 90.3638 1222.61 81.0736C1233.14 71.8021 1249.43 67.1476 1271.49 67.1476H1375.35V105.322H1289.99C1276.06 105.322 1267.02 106.542 1262.83 108.963C1258.65 111.403 1256.55 115.719 1256.55 121.95C1256.55 127.6 1258.39 131.766 1262.06 134.431C1265.74 137.096 1271.54 138.41 1279.46 138.41H1323.25C1343.27 138.41 1358.55 143.083 1369.06 152.411C1379.59 161.739 1384.84 175.233 1384.84 192.894C1384.84 210.555 1380.17 223.674 1370.84 234.296C1361.52 244.919 1349.49 250.249 1334.79 250.249H1209.89V212.075L1209.87 212.094Z" fill="white"/>
<path d="M122.952 0.408197H171.542L278.333 250.362H220.264L122.952 0.408197Z" fill="white"/>
<path d="M-137.681 -27.2936C-137.681 -27.2936 153.225 -156.099 572.692 -178.621L616.328 -215.331L603.078 -229.107C603.078 -229.107 270.976 -236.933 -137.681 -27.2936Z" fill="#45B1F6"/>
<path d="M1533.62 -27.2936C1533.62 -27.2936 1242.71 -156.099 823.246 -178.621L779.611 -215.331L792.861 -229.107C792.861 -229.107 1124.96 -236.933 1533.62 -27.2936Z" fill="#45B1F6"/>
<path d="M733.629 -213.304L791.866 -272.987L720.153 -239.692L698.138 -473.149L676.142 -239.692L604.429 -272.987L662.666 -213.304L523.163 -94.8025L683.668 -186.222L698.138 -93.545L712.627 -186.222L873.113 -94.8025L733.629 -213.304Z" fill="white"/>
<path d="M118.091 183.454L150.428 150.309L110.602 168.796L98.3843 39.1456L86.1662 168.796L46.3403 150.309L78.6778 183.454L1.20297 249.273L90.3515 198.506L98.3843 249.968L106.436 198.506L195.566 249.273L118.091 183.454Z" fill="white"/>
</g>
<defs>
<clipPath id="clip0_73_5">
<rect width="1385" height="251" fill="white"/>
</clipPath>
</defs>
</svg>
