<svg id="Capa_1" data-name="Capa 1" xmlns="http://www.w3.org/2000/svg" viewBox="0 0 18.83 21.51"><defs><style>.cls-1{fill:#02021e;}</style></defs><path class="cls-1" d="M38.63,50.19l-8.06-8.07a1.13,1.13,0,0,1-.29-.43,1.28,1.28,0,0,1,0-1,1.13,1.13,0,0,1,.29-.43,1.23,1.23,0,0,1,.44-.3,1.29,1.29,0,0,1,.51-.1,1.3,1.3,0,0,1,.52.1,1.43,1.43,0,0,1,.44.3L38.24,46V30.42a1.35,1.35,0,0,1,.4-1,1.31,1.31,0,0,1,1-.4,1.32,1.32,0,0,1,.95.4,1.34,1.34,0,0,1,.39,1V46l5.77-5.77a1.31,1.31,0,0,1,.95-.4,1.35,1.35,0,0,1,1,2.3l-8.07,8.07a1.35,1.35,0,0,1-.44.29,1.26,1.26,0,0,1-.51.11,1.31,1.31,0,0,1-.52-.11A1.6,1.6,0,0,1,38.63,50.19Z" transform="translate(-30.17 -29.07)"/></svg>