<svg id="Capa_1" data-name="Capa 1" xmlns="http://www.w3.org/2000/svg" viewBox="0 0 16 16"><defs><style>.cls-1{fill:#02021e;}</style></defs><path class="cls-1" d="M16,1.35V12.76a1.49,1.49,0,0,1-.1.51,1.32,1.32,0,0,1-.3.44,1.42,1.42,0,0,1-.43.29,1.4,1.4,0,0,1-1,0,1.42,1.42,0,0,1-.43-.29,1.32,1.32,0,0,1-.3-.44,1.49,1.49,0,0,1-.1-.51V4.59l-11,11a1.34,1.34,0,0,1-.95.39,1.37,1.37,0,0,1-.95-.39A1.37,1.37,0,0,1,0,14.66a1.34,1.34,0,0,1,.39-.95l11-11H3.24a1.32,1.32,0,0,1-1-.4,1.35,1.35,0,0,1-.4-.95A1.35,1.35,0,0,1,2.29.4a1.32,1.32,0,0,1,1-.4H14.65a1.34,1.34,0,0,1,.52.1,1.6,1.6,0,0,1,.44.29,1.6,1.6,0,0,1,.29.44A1.34,1.34,0,0,1,16,1.35Z" transform="translate(0 0)"/></svg>